<?xml version="1.0" encoding="utf-8"?>
<!-- Generator: Adobe Illustrator 27.9.0, SVG Export Plug-In . SVG Version: 6.00 Build 0)  -->
<svg version="1.1" id="Camada_1" xmlns="http://www.w3.org/2000/svg" xmlns:xlink="http://www.w3.org/1999/xlink" x="0px" y="0px"
	 viewBox="0 0 172 39" style="enable-background:new 0 0 172 39;" xml:space="preserve">
<style type="text/css">
	.st0{fill:#FFFFFF;}
	.st1{fill:#001622;}
	.st2{fill-rule:evenodd;clip-rule:evenodd;fill:#FFFFFF;}
	.st3{fill-rule:evenodd;clip-rule:evenodd;fill:#C6322D;}
	.st4{fill-rule:evenodd;clip-rule:evenodd;fill:#001521;}
</style>
<path class="st0" d="M81.2,15.3H88c0.1,1.2,1.1,2,4,2c2.5,0,3.5-0.6,3.5-1.4c0-0.4-0.1-1.1-2-1.4l-2.8-0.4c-4-0.6-9.1-0.9-9.1-6.6
	c0-4.2,3.4-6.8,10.5-6.8c6.3,0,10.7,1.6,10.5,7.9h-6.8c-0.2-1.2-1.3-2-3.8-2C89.7,6.7,89,7.3,89,8c0,0.4,0.2,1.1,1.6,1.3l2.2,0.4
	c4.3,0.7,10.4,0.6,10.4,6.6c0,4.7-3.7,7-11.2,6.9C84.4,23.2,80.9,21,81.2,15.3z"/>
<path class="st0" d="M104.4,1.5h12.4c5.9,0,9.4,2.5,9.4,8.4c0,5.9-3.6,8.4-9.4,8.4h-4.8v4.3h-7.7V1.5z M116.1,12
	c1.4,0,2.4-0.7,2.4-2.1c0-1.4-0.9-2.1-2.3-2.1h-4.1V12H116.1z"/>
<path class="st0" d="M127.6,1.5h19.5v6.3h-11.9V10h11.4v5.4h-11.4v7.1h-7.7V1.5z"/>
<path class="st0" d="M148,12.1c0-6.8,4.8-11.2,12.1-11.2c5.3,0,10.9,2.3,11.5,9.7h-7.3c-0.5-2.2-2-3.2-4.2-3.2
	c-2.4,0-4.5,1.8-4.5,4.7c0,2.9,2,4.7,4.5,4.7c2.2,0,3.7-1,4.2-3.3h7.3c-0.6,7.5-6,9.8-11.5,9.8C152.8,23.3,148,18.8,148,12.1z"/>
<path class="st0" d="M66.5,23.6c-1,0-1.8-0.4-2.4-1.1l-7.5-9c-0.5-0.6-0.7-1.3-0.7-2V7.2c0-0.1,0-0.2,0-0.3c0-1.3,0-2.9,0-4.5
	c0-0.9,0.4-1.6,1.2-1.9l0.1,0h6.1l0.1,0c0.7,0.3,1.1,0.9,1.2,1.7c0.1,1,0.9,1.8,2,1.8c1,0,1.9-0.8,2-1.8c0.1-0.8,0.5-1.4,1.2-1.7
	l0.1,0h6.1l0.1,0c0.8,0.3,1.2,0.9,1.2,1.9c0,1.6,0,3.2,0,4.6v0c0,0.1,0,0.1,0,0.2v4.2c0,0.7-0.2,1.4-0.7,2l-7.5,9
	C68.3,23.2,67.4,23.6,66.5,23.6z M57.4,1.6C57.1,1.7,57,1.9,57,2.4c0,1.6,0,3.2,0,4.5V7c0,0.1,0,0.2,0,0.2v4.3
	c0,0.5,0.2,0.9,0.5,1.2l7.5,9c0.4,0.5,1,0.7,1.5,0.7c0.6,0,1.2-0.3,1.5-0.7l7.5-9c0.3-0.4,0.5-0.8,0.5-1.2V7.2c0,0,0-0.1,0-0.1V7
	c0-1.5,0-3.1,0-4.7c0-0.5-0.1-0.6-0.4-0.7h-5.6c-0.2,0.1-0.3,0.3-0.4,0.7c-0.1,1.6-1.5,2.9-3.1,2.9c-1.6,0-3-1.2-3.1-2.9
	c0-0.4-0.2-0.6-0.4-0.7H57.4z"/>
<path class="st0" d="M56.9,9.1h-0.5v0.8h0.5V9.1z"/>
<path class="st0" d="M75.1,9.8h-0.9V9.1h0.9V9.8z M73.3,9.8h-0.9V9.1h0.9V9.8z M71.5,9.8h-0.9V9.1h0.9V9.8z M69.6,9.8h-0.9V9.1h0.9
	V9.8z M67.8,9.8h-0.9V9.1h0.9V9.8z M66,9.8h-0.9V9.1H66V9.8z M64.2,9.8h-0.9V9.1h0.9V9.8z M62.3,9.8h-0.9V9.1h0.9V9.8z M60.5,9.8
	h-0.9V9.1h0.9V9.8z M58.7,9.8h-0.9V9.1h0.9V9.8z"/>
<path class="st0" d="M76.5,9.1H76v0.8h0.5V9.1z"/>
<path class="st1" d="M131.9,37.2c-0.5,0.9-1.5,1.4-3.1,1.4c-1.8,0-3-0.9-3-3.1v-3.3h-1.5v-2.2h1.6v-2.4h2.6v2.4h2.8v2.2h-2.8v3
	c0,0.7,0.3,0.9,0.9,0.9c0.4,0,0.7-0.2,1-0.5L131.9,37.2z"/>
<path class="st1" d="M132.4,27.3c0-1.1,0.8-1.6,1.7-1.6c1,0,1.7,0.6,1.7,1.6c0,1-0.7,1.6-1.7,1.6C133.2,28.9,132.4,28.3,132.4,27.3z
	 M132.7,29.9h2.8v8.4h-2.8V29.9z"/>
<path class="st1" d="M136.9,34.2c0-2.9,1.9-4.6,4.3-4.6c2.1,0,3.6,0.9,3.9,3.1l-2.5,0.3c-0.2-0.7-0.6-1-1.3-1c-1,0-1.6,0.7-1.6,2.1
	c0,1.5,0.6,2.1,1.6,2.1c0.7,0,1.2-0.3,1.4-1l2.5,0.3c-0.3,2-1.9,3-4,3C138.6,38.6,136.9,37.1,136.9,34.2z"/>
<path class="st1" d="M150,35.4l-1,0.8v2.1h-2.8V25.9h2.8v7.3l2.7-3.3h3.1l-2.9,3.6l3.1,4.8h-3.2L150,35.4z"/>
<path class="st1" d="M163.4,34.8h-5.6c0.2,1.2,0.7,1.6,1.6,1.6c0.8,0,1.2-0.4,1.4-0.9l2.5,0.3c-0.4,1.7-1.9,2.6-4,2.6
	c-2.7,0-4.3-1.6-4.3-4.4c0-2.8,1.7-4.6,4.4-4.6c2.4,0,4.1,1.4,4.1,4.2C163.4,34.2,163.4,34.4,163.4,34.8z M157.8,33.1h3
	c-0.1-0.9-0.6-1.4-1.5-1.4C158.6,31.7,158,32.1,157.8,33.1z"/>
<path class="st1" d="M171.5,37.2c-0.5,0.9-1.5,1.4-3.1,1.4c-1.8,0-3-0.9-3-3.1v-3.3h-1.5v-2.2h1.6v-2.4h2.6v2.4h2.8v2.2h-2.8v3
	c0,0.7,0.3,0.9,0.9,0.9c0.4,0,0.7-0.2,1-0.5L171.5,37.2z"/>
<path class="st2" d="M0.5,15.2V0.3h38.2v14.8L19.6,38.5L0.5,15.2z"/>
<path class="st3" d="M2.7,14.5l13.9,17v-17H2.7z"/>
<path class="st4" d="M36.5,14.5l-13.9,17v-17H36.5z"/>
<path class="st4" d="M16.6,5.5h-2.5v1.5h2.5c0.2,0,0.3,0,0.4-0.1c0.2-0.2,0.2-1.1,0-1.2C16.8,5.5,16.7,5.5,16.6,5.5z M2.6,2.5v9.9
	h33.9V2.5H2.6z M10.6,9.8c0,0.3-0.4,1-0.8,1H4.7V9.3h4.1c0.3,0,0.3-1.2,0-1.2H5.7c-0.4,0-1-0.3-1-0.7l0-2.3c0-1.1,0.9-1,1.7-1h4.3
	v1.3H6.5c-0.4,0-0.4,1.3,0,1.3h2.8c0.6,0,1.4,0.2,1.4,1L10.6,9.8z M18.5,7c0,0.5-0.1,0.8-0.3,1c-0.2,0.2-0.5,0.3-0.8,0.3h-3.2v2.5
	h-1.5V4.1l4.8,0c0.4,0,0.6,0.1,0.8,0.3c0.2,0.2,0.3,0.5,0.3,0.8L18.5,7L18.5,7z M26.5,5.4H22v1.6h3.4v1.4H22v2.5h-1.4V4.1h5.9
	L26.5,5.4z M34.5,9.2c0,0.8-0.3,1.6-1.4,1.6h-3.3c-1.2,0-1.4-0.6-1.4-1.6l0-4.2c0-0.5,0.5-1,1.4-1h3.4c0.9,0,1.3,0.6,1.3,1v1.4h-1.5
	c0-0.7-0.1-1-0.5-1h-2.1c-0.3,0-0.6,0.4-0.6,0.7v2.6c0,0.1,0.3,0.6,0.5,0.6h2.2c0.3,0,0.5-0.4,0.5-0.9h1.5L34.5,9.2L34.5,9.2z"/>
</svg>
